<svg width="44" height="48" viewBox="0 0 44 48" fill="none" xmlns="http://www.w3.org/2000/svg">
<path d="M0 22C0 9.84974 9.84974 0 22 0C34.1503 0 44 9.84974 44 22V26C44 38.1503 34.1503 48 22 48C9.84974 48 0 38.1503 0 26V22Z" fill="white"/>
<path fill-rule="evenodd" clip-rule="evenodd" d="M10 33.4999V13.5001C10 12.4476 10.7302 11.5078 11.8265 11.1494C12.9227 10.7911 14.1502 11.0911 14.8966 11.8997L28.4615 26.5948V13.5001C28.4615 12.1194 29.7013 11.0001 31.2308 11.0001C32.7602 11.0001 34 12.1194 34 13.5001V33.4999C34 34.5524 33.2698 35.4923 32.1735 35.8506C31.0773 36.2088 29.8498 35.9089 29.1034 35.1003L15.5385 20.4052V33.4999C15.5385 34.8806 14.2987 35.9998 12.7692 35.9998C11.2398 35.9998 10 34.8806 10 33.4999ZM11.8462 13.5001V33.4999C11.8462 33.9601 12.2594 34.3332 12.7692 34.3332C13.279 34.3332 13.6923 33.9601 13.6923 33.4999V18.1034C13.6923 17.7526 13.9357 17.4394 14.3012 17.3199C14.6665 17.2004 15.0757 17.3004 15.3245 17.57L30.5217 34.0334C30.7704 34.3029 31.1795 34.4029 31.545 34.2834C31.9104 34.164 32.1538 33.8508 32.1538 33.4999V13.5001C32.1538 13.0399 31.7406 12.6667 31.2308 12.6667C30.721 12.6667 30.3077 13.0399 30.3077 13.5001V28.8965C30.3077 29.2474 30.0643 29.5607 29.6988 29.6801C29.3334 29.7995 28.9243 29.6996 28.6755 29.43L13.4783 12.9667C13.2296 12.6971 12.8204 12.5971 12.455 12.7166C12.0896 12.836 11.8462 13.1492 11.8462 13.5001Z" fill="#333333"/>
</svg>
